<svg xmlns="http://www.w3.org/2000/svg" xmlns:xlink="http://www.w3.org/1999/xlink" width="500" zoomAndPan="magnify" viewBox="0 0 375 374.999991" height="500" preserveAspectRatio="xMidYMid meet" version="1.0"><defs><g/><clipPath id="f7dba32871"><path d="M 47 154.777344 L 112 154.777344 L 112 214 L 47 214 Z M 47 154.777344 " clip-rule="nonzero"/></clipPath></defs><g clip-path="url(#f7dba32871)"><path fill="#3f4bf2" d="M 71.878906 178.472656 C 71.507812 178.199219 71.15625 177.910156 70.820312 177.601562 C 70.484375 177.292969 70.164062 176.964844 69.859375 176.625 C 69.558594 176.28125 69.273438 175.925781 69.007812 175.550781 C 68.742188 175.179688 68.496094 174.792969 68.269531 174.398438 C 68.046875 174 67.839844 173.589844 67.660156 173.171875 C 67.476562 172.75 67.316406 172.324219 67.175781 171.886719 C 67.039062 171.453125 66.925781 171.011719 66.832031 170.5625 C 66.738281 170.113281 66.671875 169.664062 66.625 169.207031 C 66.582031 168.753906 66.5625 168.296875 66.5625 167.839844 C 66.566406 167.382812 66.59375 166.925781 66.644531 166.472656 C 66.695312 166.015625 66.769531 165.566406 66.863281 165.121094 C 66.960938 164.671875 67.082031 164.234375 67.226562 163.796875 C 67.371094 163.363281 67.535156 162.9375 67.722656 162.523438 C 67.910156 162.105469 68.121094 161.699219 68.351562 161.304688 C 68.582031 160.910156 68.832031 160.527344 69.101562 160.15625 C 69.371094 159.789062 69.660156 159.433594 69.964844 159.097656 C 70.273438 158.757812 70.597656 158.433594 70.9375 158.128906 C 71.277344 157.824219 71.632812 157.539062 72.003906 157.269531 C 72.375 157.003906 72.757812 156.753906 73.15625 156.527344 C 73.550781 156.300781 73.960938 156.09375 74.378906 155.90625 C 74.796875 155.722656 75.222656 155.558594 75.65625 155.417969 C 76.09375 155.277344 76.535156 155.160156 76.980469 155.066406 C 77.429688 154.96875 77.878906 154.898438 78.335938 154.851562 C 78.789062 154.804688 79.246094 154.78125 79.703125 154.78125 C 80.160156 154.78125 80.617188 154.804688 81.070312 154.851562 C 81.523438 154.898438 81.976562 154.96875 82.421875 155.066406 C 82.871094 155.160156 83.3125 155.277344 83.746094 155.417969 C 84.183594 155.558594 84.609375 155.722656 85.027344 155.90625 C 85.445312 156.09375 85.851562 156.300781 86.25 156.527344 C 86.644531 156.753906 87.027344 157.003906 87.398438 157.269531 C 87.769531 157.539062 88.125 157.824219 88.464844 158.128906 C 88.808594 158.433594 89.132812 158.757812 89.4375 159.097656 C 89.746094 159.433594 90.035156 159.789062 90.304688 160.15625 C 90.574219 160.527344 90.824219 160.910156 91.054688 161.304688 C 91.285156 161.699219 91.492188 162.105469 91.679688 162.523438 C 91.871094 162.9375 92.035156 163.363281 92.179688 163.796875 C 92.320312 164.234375 92.441406 164.671875 92.539062 165.121094 C 92.636719 165.566406 92.710938 166.015625 92.761719 166.472656 C 92.8125 166.925781 92.839844 167.382812 92.839844 167.839844 C 92.84375 168.296875 92.824219 168.753906 92.777344 169.207031 C 92.734375 169.664062 92.664062 170.113281 92.574219 170.5625 C 92.480469 171.011719 92.367188 171.453125 92.226562 171.886719 C 92.089844 172.324219 91.929688 172.75 91.746094 173.171875 C 91.5625 173.589844 91.359375 174 91.132812 174.398438 C 90.90625 174.792969 90.664062 175.179688 90.398438 175.550781 C 90.132812 175.925781 89.847656 176.28125 89.542969 176.625 C 89.242188 176.964844 88.921875 177.292969 88.585938 177.601562 C 88.246094 177.910156 87.894531 178.199219 87.527344 178.472656 L 82.972656 181.847656 C 82.488281 182.214844 82.085938 182.65625 81.761719 183.171875 C 81.4375 183.6875 81.21875 184.246094 81.097656 184.84375 C 80.976562 185.4375 80.96875 186.039062 81.066406 186.636719 C 81.164062 187.238281 81.367188 187.800781 81.671875 188.328125 C 81.976562 188.855469 82.363281 189.3125 82.832031 189.699219 C 83.304688 190.085938 83.828125 190.375 84.40625 190.566406 C 84.980469 190.761719 85.574219 190.847656 86.183594 190.828125 C 86.789062 190.804688 87.375 190.675781 87.9375 190.441406 L 93.128906 188.1875 C 93.550781 188.003906 93.976562 187.84375 94.414062 187.707031 C 94.851562 187.570312 95.292969 187.457031 95.738281 187.367188 C 96.1875 187.273438 96.640625 187.207031 97.09375 187.164062 C 97.550781 187.117188 98.007812 187.097656 98.464844 187.101562 C 98.921875 187.105469 99.378906 187.132812 99.832031 187.183594 C 100.285156 187.234375 100.738281 187.3125 101.183594 187.410156 C 101.628906 187.507812 102.070312 187.628906 102.503906 187.773438 C 102.9375 187.917969 103.363281 188.085938 103.78125 188.273438 C 104.195312 188.460938 104.601562 188.671875 104.996094 188.902344 C 105.390625 189.132812 105.773438 189.382812 106.140625 189.65625 C 106.511719 189.925781 106.863281 190.214844 107.203125 190.523438 C 107.539062 190.832031 107.859375 191.15625 108.164062 191.496094 C 108.46875 191.839844 108.753906 192.195312 109.023438 192.566406 C 109.289062 192.9375 109.535156 193.320312 109.765625 193.71875 C 109.992188 194.117188 110.195312 194.523438 110.382812 194.941406 C 110.566406 195.359375 110.726562 195.789062 110.867188 196.222656 C 111.007812 196.65625 111.125 197.101562 111.21875 197.546875 C 111.3125 197.996094 111.382812 198.445312 111.429688 198.902344 C 111.476562 199.355469 111.5 199.8125 111.496094 200.269531 C 111.496094 200.726562 111.472656 201.183594 111.421875 201.636719 C 111.375 202.09375 111.300781 202.542969 111.207031 202.992188 C 111.109375 203.4375 110.992188 203.878906 110.851562 204.3125 C 110.707031 204.75 110.542969 205.175781 110.359375 205.59375 C 110.171875 206.011719 109.964844 206.417969 109.734375 206.8125 C 109.507812 207.210938 109.257812 207.59375 108.988281 207.960938 C 108.71875 208.332031 108.433594 208.6875 108.128906 209.027344 C 107.820312 209.367188 107.5 209.691406 107.160156 209.996094 C 106.820312 210.304688 106.464844 210.589844 106.09375 210.859375 C 105.726562 211.128906 105.34375 211.378906 104.949219 211.609375 C 104.550781 211.835938 104.144531 212.046875 103.726562 212.234375 C 103.308594 212.417969 102.882812 212.585938 102.449219 212.726562 C 102.015625 212.867188 101.574219 212.988281 101.128906 213.085938 C 100.679688 213.179688 100.230469 213.253906 99.773438 213.304688 C 99.320312 213.351562 98.863281 213.378906 98.40625 213.378906 C 97.949219 213.382812 97.492188 213.359375 97.039062 213.3125 C 96.582031 213.265625 96.132812 213.199219 95.683594 213.105469 C 95.234375 213.011719 94.792969 212.894531 94.359375 212.757812 C 93.921875 212.617188 93.496094 212.457031 93.078125 212.273438 C 92.660156 212.089844 92.25 211.882812 91.851562 211.65625 C 91.457031 211.429688 91.070312 211.183594 90.699219 210.917969 C 90.328125 210.648438 89.972656 210.363281 89.628906 210.0625 C 89.289062 209.757812 88.960938 209.4375 88.65625 209.097656 C 88.347656 208.761719 88.054688 208.410156 87.785156 208.039062 C 87.511719 207.671875 87.261719 207.289062 87.03125 206.898438 C 86.796875 206.503906 86.585938 206.097656 86.398438 205.679688 C 86.210938 205.265625 86.042969 204.839844 85.898438 204.40625 C 85.753906 203.972656 85.628906 203.53125 85.53125 203.085938 C 85.433594 202.640625 85.355469 202.1875 85.304688 201.734375 L 84.664062 196.109375 C 84.59375 195.503906 84.417969 194.925781 84.132812 194.382812 C 83.851562 193.835938 83.480469 193.359375 83.023438 192.953125 C 82.566406 192.542969 82.050781 192.230469 81.476562 192.011719 C 80.90625 191.792969 80.3125 191.683594 79.699219 191.683594 C 79.085938 191.683594 78.492188 191.792969 77.917969 192.011719 C 77.347656 192.230469 76.832031 192.542969 76.375 192.953125 C 75.917969 193.359375 75.546875 193.835938 75.265625 194.382812 C 74.980469 194.925781 74.804688 195.503906 74.734375 196.109375 L 74.09375 201.734375 C 74.042969 202.1875 73.964844 202.640625 73.867188 203.085938 C 73.769531 203.53125 73.644531 203.972656 73.5 204.40625 C 73.355469 204.839844 73.1875 205.265625 73 205.679688 C 72.808594 206.097656 72.601562 206.503906 72.367188 206.898438 C 72.136719 207.289062 71.886719 207.671875 71.613281 208.039062 C 71.34375 208.410156 71.050781 208.761719 70.742188 209.097656 C 70.4375 209.4375 70.109375 209.757812 69.769531 210.0625 C 69.425781 210.363281 69.070312 210.648438 68.699219 210.917969 C 68.328125 211.183594 67.941406 211.429688 67.546875 211.65625 C 67.148438 211.882812 66.738281 212.089844 66.320312 212.273438 C 65.902344 212.457031 65.476562 212.617188 65.039062 212.757812 C 64.605469 212.894531 64.160156 213.011719 63.714844 213.105469 C 63.265625 213.199219 62.816406 213.265625 62.359375 213.3125 C 61.90625 213.359375 61.449219 213.382812 60.992188 213.378906 C 60.535156 213.378906 60.078125 213.351562 59.625 213.304688 C 59.167969 213.253906 58.71875 213.179688 58.269531 213.085938 C 57.824219 212.988281 57.382812 212.867188 56.949219 212.726562 C 56.515625 212.585938 56.085938 212.417969 55.671875 212.234375 C 55.253906 212.046875 54.847656 211.835938 54.449219 211.609375 C 54.054688 211.378906 53.671875 211.128906 53.304688 210.859375 C 52.933594 210.589844 52.578125 210.304688 52.238281 209.996094 C 51.898438 209.691406 51.578125 209.367188 51.269531 209.027344 C 50.964844 208.6875 50.679688 208.332031 50.410156 207.960938 C 50.140625 207.59375 49.890625 207.210938 49.664062 206.8125 C 49.433594 206.417969 49.226562 206.011719 49.039062 205.59375 C 48.855469 205.175781 48.691406 204.75 48.546875 204.3125 C 48.40625 203.878906 48.289062 203.4375 48.191406 202.992188 C 48.097656 202.542969 48.023438 202.09375 47.976562 201.636719 C 47.925781 201.183594 47.902344 200.726562 47.902344 200.269531 C 47.898438 199.8125 47.921875 199.355469 47.96875 198.902344 C 48.015625 198.445312 48.085938 197.996094 48.179688 197.546875 C 48.273438 197.101562 48.390625 196.65625 48.53125 196.222656 C 48.671875 195.789062 48.832031 195.359375 49.015625 194.941406 C 49.203125 194.523438 49.40625 194.117188 49.632812 193.71875 C 49.859375 193.320312 50.109375 192.9375 50.375 192.566406 C 50.644531 192.195312 50.929688 191.839844 51.234375 191.496094 C 51.535156 191.15625 51.859375 190.832031 52.195312 190.523438 C 52.535156 190.214844 52.886719 189.925781 53.257812 189.65625 C 53.625 189.382812 54.007812 189.132812 54.402344 188.902344 C 54.796875 188.671875 55.203125 188.460938 55.617188 188.273438 C 56.035156 188.085938 56.460938 187.917969 56.894531 187.773438 C 57.328125 187.628906 57.769531 187.507812 58.214844 187.410156 C 58.660156 187.3125 59.113281 187.234375 59.566406 187.183594 C 60.019531 187.132812 60.476562 187.105469 60.933594 187.101562 C 61.390625 187.097656 61.847656 187.117188 62.304688 187.164062 C 62.757812 187.207031 63.210938 187.273438 63.65625 187.367188 C 64.105469 187.457031 64.546875 187.570312 64.984375 187.707031 C 65.421875 187.84375 65.847656 188.003906 66.269531 188.1875 L 71.460938 190.441406 C 72.023438 190.675781 72.609375 190.804688 73.214844 190.828125 C 73.824219 190.847656 74.417969 190.761719 74.992188 190.566406 C 75.570312 190.375 76.09375 190.082031 76.566406 189.699219 C 77.035156 189.3125 77.421875 188.855469 77.726562 188.328125 C 78.03125 187.800781 78.234375 187.238281 78.332031 186.636719 C 78.429688 186.039062 78.421875 185.4375 78.300781 184.84375 C 78.179688 184.246094 77.960938 183.6875 77.636719 183.171875 C 77.3125 182.65625 76.910156 182.214844 76.425781 181.847656 Z M 71.878906 178.472656 " fill-opacity="1" fill-rule="evenodd"/></g><g fill="#1e2122" fill-opacity="1"><g transform="translate(120.8932, 200.62096)"><g><path d="M 3.140625 0 L 3.140625 -34.984375 L 20.6875 -34.984375 C 22.382812 -34.984375 23.957031 -34.707031 25.40625 -34.15625 C 26.851562 -33.601562 28.09375 -32.84375 29.125 -31.875 C 30.164062 -30.914062 30.976562 -29.757812 31.5625 -28.40625 C 32.144531 -27.0625 32.4375 -25.585938 32.4375 -23.984375 C 32.4375 -22.421875 32.144531 -20.976562 31.5625 -19.65625 C 30.976562 -18.34375 30.160156 -17.203125 29.109375 -16.234375 C 28.054688 -15.273438 26.8125 -14.523438 25.375 -13.984375 C 23.945312 -13.453125 22.382812 -13.1875 20.6875 -13.1875 L 10.390625 -13.1875 L 10.390625 0 Z M 19.890625 -28.734375 L 10.390625 -28.734375 L 10.390625 -19.1875 L 19.890625 -19.1875 C 21.453125 -19.1875 22.707031 -19.617188 23.65625 -20.484375 C 24.601562 -21.347656 25.078125 -22.5 25.078125 -23.9375 C 25.078125 -25.363281 24.601562 -26.519531 23.65625 -27.40625 C 22.707031 -28.289062 21.453125 -28.734375 19.890625 -28.734375 Z M 19.890625 -28.734375 "/></g></g></g><g fill="#1e2122" fill-opacity="1"><g transform="translate(153.422688, 200.62096)"><g><path d="M 2.703125 0 L 2.703125 -26.03125 L 9.546875 -26.03125 L 9.546875 -23.1875 C 10.378906 -24.320312 11.382812 -25.179688 12.5625 -25.765625 C 13.75 -26.347656 15.054688 -26.640625 16.484375 -26.640625 C 17.148438 -26.597656 17.707031 -26.535156 18.15625 -26.453125 C 18.613281 -26.367188 19.007812 -26.226562 19.34375 -26.03125 L 19.34375 -20.03125 C 18.84375 -20.269531 18.289062 -20.445312 17.6875 -20.5625 C 17.09375 -20.675781 16.476562 -20.734375 15.84375 -20.734375 C 14.507812 -20.734375 13.285156 -20.398438 12.171875 -19.734375 C 11.054688 -19.066406 10.179688 -18.101562 9.546875 -16.84375 L 9.546875 0 Z M 2.703125 0 "/></g></g></g><g fill="#1e2122" fill-opacity="1"><g transform="translate(172.260717, 200.62096)"><g><path d="M 1.5 -12.984375 C 1.5 -14.890625 1.851562 -16.664062 2.5625 -18.3125 C 3.28125 -19.957031 4.265625 -21.390625 5.515625 -22.609375 C 6.765625 -23.828125 8.238281 -24.785156 9.9375 -25.484375 C 11.632812 -26.179688 13.453125 -26.53125 15.390625 -26.53125 C 17.316406 -26.53125 19.128906 -26.179688 20.828125 -25.484375 C 22.535156 -24.785156 24.015625 -23.828125 25.265625 -22.609375 C 26.515625 -21.390625 27.492188 -19.957031 28.203125 -18.3125 C 28.921875 -16.664062 29.28125 -14.890625 29.28125 -12.984375 C 29.28125 -11.085938 28.921875 -9.316406 28.203125 -7.671875 C 27.492188 -6.023438 26.515625 -4.597656 25.265625 -3.390625 C 24.015625 -2.191406 22.535156 -1.242188 20.828125 -0.546875 C 19.128906 0.148438 17.316406 0.5 15.390625 0.5 C 13.453125 0.5 11.632812 0.148438 9.9375 -0.546875 C 8.238281 -1.242188 6.765625 -2.191406 5.515625 -3.390625 C 4.265625 -4.597656 3.28125 -6.023438 2.5625 -7.671875 C 1.851562 -9.316406 1.5 -11.085938 1.5 -12.984375 Z M 15.390625 -5.453125 C 17.390625 -5.453125 19.085938 -6.179688 20.484375 -7.640625 C 21.878906 -9.109375 22.578125 -10.890625 22.578125 -12.984375 C 22.578125 -15.117188 21.878906 -16.921875 20.484375 -18.390625 C 19.085938 -19.859375 17.390625 -20.59375 15.390625 -20.59375 C 13.390625 -20.59375 11.6875 -19.859375 10.28125 -18.390625 C 8.882812 -16.921875 8.1875 -15.117188 8.1875 -12.984375 C 8.1875 -10.890625 8.882812 -9.109375 10.28125 -7.640625 C 11.6875 -6.179688 13.390625 -5.453125 15.390625 -5.453125 Z M 15.390625 -5.453125 "/></g></g></g><g fill="#1e2122" fill-opacity="1"><g transform="translate(201.542238, 200.62096)"><g><path d="M 6.09375 -29.125 C 5.03125 -29.125 4.113281 -29.507812 3.34375 -30.28125 C 2.582031 -31.050781 2.203125 -31.96875 2.203125 -33.03125 C 2.203125 -34.09375 2.582031 -35.003906 3.34375 -35.765625 C 4.113281 -36.535156 5.03125 -36.921875 6.09375 -36.921875 C 7.15625 -36.921875 8.070312 -36.535156 8.84375 -35.765625 C 9.613281 -35.003906 10 -34.09375 10 -33.03125 C 10 -31.96875 9.613281 -31.050781 8.84375 -30.28125 C 8.070312 -29.507812 7.15625 -29.125 6.09375 -29.125 Z M 1.09375 10.75 C 0.46875 10.75 -0.1875 10.707031 -0.875 10.625 C -1.5625 10.539062 -2.101562 10.429688 -2.5 10.296875 L -2.5 5.046875 C -2.132812 5.109375 -1.773438 5.15625 -1.421875 5.1875 C -1.078125 5.226562 -0.6875 5.25 -0.25 5.25 C 0.78125 5.25 1.53125 5.039062 2 4.625 C 2.46875 4.207031 2.703125 3.53125 2.703125 2.59375 L 2.703125 -26.03125 L 9.546875 -26.03125 L 9.546875 3 C 9.546875 5.46875 8.800781 7.375 7.3125 8.71875 C 5.832031 10.070312 3.757812 10.75 1.09375 10.75 Z M 1.09375 10.75 "/></g></g></g><g fill="#1e2122" fill-opacity="1"><g transform="translate(212.235345, 200.62096)"><g><path d="M 26.03125 -3.25 C 24.4375 -1.945312 22.796875 -0.992188 21.109375 -0.390625 C 19.429688 0.203125 17.554688 0.5 15.484375 0.5 C 13.523438 0.5 11.6875 0.148438 9.96875 -0.546875 C 8.25 -1.242188 6.765625 -2.191406 5.515625 -3.390625 C 4.265625 -4.597656 3.28125 -6.023438 2.5625 -7.671875 C 1.851562 -9.316406 1.5 -11.085938 1.5 -12.984375 C 1.5 -14.859375 1.835938 -16.617188 2.515625 -18.265625 C 3.203125 -19.910156 4.144531 -21.34375 5.34375 -22.5625 C 6.539062 -23.78125 7.960938 -24.738281 9.609375 -25.4375 C 11.265625 -26.132812 13.023438 -26.484375 14.890625 -26.484375 C 16.722656 -26.484375 18.429688 -26.125 20.015625 -25.40625 C 21.597656 -24.6875 22.960938 -23.710938 24.109375 -22.484375 C 25.253906 -21.253906 26.148438 -19.78125 26.796875 -18.0625 C 27.453125 -16.34375 27.78125 -14.484375 27.78125 -12.484375 L 27.78125 -10.6875 L 8.390625 -10.6875 C 8.859375 -9.0625 9.757812 -7.75 11.09375 -6.75 C 12.425781 -5.75 13.992188 -5.25 15.796875 -5.25 C 16.921875 -5.25 17.984375 -5.429688 18.984375 -5.796875 C 19.984375 -6.160156 20.832031 -6.675781 21.53125 -7.34375 Z M 14.734375 -20.84375 C 13.171875 -20.84375 11.820312 -20.363281 10.6875 -19.40625 C 9.5625 -18.457031 8.78125 -17.1875 8.34375 -15.59375 L 21.09375 -15.59375 C 20.65625 -17.125 19.859375 -18.378906 18.703125 -19.359375 C 17.554688 -20.347656 16.234375 -20.84375 14.734375 -20.84375 Z M 14.734375 -20.84375 "/></g></g></g><g fill="#1e2122" fill-opacity="1"><g transform="translate(240.017787, 200.62096)"><g><path d="M 15.4375 -5.5 C 16.601562 -5.5 17.691406 -5.726562 18.703125 -6.1875 C 19.722656 -6.65625 20.703125 -7.390625 21.640625 -8.390625 L 25.734375 -4.140625 C 24.398438 -2.679688 22.800781 -1.539062 20.9375 -0.71875 C 19.070312 0.09375 17.140625 0.5 15.140625 0.5 C 13.242188 0.5 11.453125 0.148438 9.765625 -0.546875 C 8.085938 -1.242188 6.640625 -2.191406 5.421875 -3.390625 C 4.203125 -4.597656 3.242188 -6.023438 2.546875 -7.671875 C 1.847656 -9.316406 1.5 -11.085938 1.5 -12.984375 C 1.5 -14.890625 1.847656 -16.664062 2.546875 -18.3125 C 3.242188 -19.957031 4.203125 -21.390625 5.421875 -22.609375 C 6.640625 -23.828125 8.085938 -24.785156 9.765625 -25.484375 C 11.453125 -26.179688 13.242188 -26.53125 15.140625 -26.53125 C 17.203125 -26.53125 19.179688 -26.117188 21.078125 -25.296875 C 22.984375 -24.484375 24.601562 -23.347656 25.9375 -21.890625 L 21.734375 -17.4375 C 20.804688 -18.46875 19.804688 -19.25 18.734375 -19.78125 C 17.671875 -20.320312 16.523438 -20.59375 15.296875 -20.59375 C 13.328125 -20.59375 11.664062 -19.859375 10.3125 -18.390625 C 8.96875 -16.921875 8.296875 -15.117188 8.296875 -12.984375 C 8.296875 -10.859375 8.984375 -9.078125 10.359375 -7.640625 C 11.742188 -6.210938 13.4375 -5.5 15.4375 -5.5 Z M 15.4375 -5.5 "/></g></g></g><g fill="#1e2122" fill-opacity="1"><g transform="translate(265.101919, 200.62096)"><g><path d="M 6.25 -7.34375 L 6.25 -20.28125 L 0.90625 -20.28125 L 0.90625 -26.03125 L 6.25 -26.03125 L 6.25 -32.671875 L 13.09375 -34.234375 L 13.09375 -26.03125 L 20.484375 -26.03125 L 20.484375 -20.28125 L 13.09375 -20.28125 L 13.09375 -8.75 C 13.09375 -7.507812 13.359375 -6.640625 13.890625 -6.140625 C 14.421875 -5.640625 15.351562 -5.390625 16.6875 -5.390625 C 17.320312 -5.390625 17.921875 -5.429688 18.484375 -5.515625 C 19.054688 -5.597656 19.675781 -5.757812 20.34375 -6 L 20.34375 -0.40625 C 19.601562 -0.164062 18.71875 0.0234375 17.6875 0.171875 C 16.65625 0.328125 15.773438 0.40625 15.046875 0.40625 C 12.140625 0.40625 9.945312 -0.25 8.46875 -1.5625 C 6.988281 -2.882812 6.25 -4.8125 6.25 -7.34375 Z M 6.25 -7.34375 "/></g></g></g><g fill="#1e2122" fill-opacity="1"><g transform="translate(284.789418, 200.62096)"><g><path d="M 1.5 -12.984375 C 1.5 -14.890625 1.851562 -16.664062 2.5625 -18.3125 C 3.28125 -19.957031 4.265625 -21.390625 5.515625 -22.609375 C 6.765625 -23.828125 8.238281 -24.785156 9.9375 -25.484375 C 11.632812 -26.179688 13.453125 -26.53125 15.390625 -26.53125 C 17.316406 -26.53125 19.128906 -26.179688 20.828125 -25.484375 C 22.535156 -24.785156 24.015625 -23.828125 25.265625 -22.609375 C 26.515625 -21.390625 27.492188 -19.957031 28.203125 -18.3125 C 28.921875 -16.664062 29.28125 -14.890625 29.28125 -12.984375 C 29.28125 -11.085938 28.921875 -9.316406 28.203125 -7.671875 C 27.492188 -6.023438 26.515625 -4.597656 25.265625 -3.390625 C 24.015625 -2.191406 22.535156 -1.242188 20.828125 -0.546875 C 19.128906 0.148438 17.316406 0.5 15.390625 0.5 C 13.453125 0.5 11.632812 0.148438 9.9375 -0.546875 C 8.238281 -1.242188 6.765625 -2.191406 5.515625 -3.390625 C 4.265625 -4.597656 3.28125 -6.023438 2.5625 -7.671875 C 1.851562 -9.316406 1.5 -11.085938 1.5 -12.984375 Z M 15.390625 -5.453125 C 17.390625 -5.453125 19.085938 -6.179688 20.484375 -7.640625 C 21.878906 -9.109375 22.578125 -10.890625 22.578125 -12.984375 C 22.578125 -15.117188 21.878906 -16.921875 20.484375 -18.390625 C 19.085938 -19.859375 17.390625 -20.59375 15.390625 -20.59375 C 13.390625 -20.59375 11.6875 -19.859375 10.28125 -18.390625 C 8.882812 -16.921875 8.1875 -15.117188 8.1875 -12.984375 C 8.1875 -10.890625 8.882812 -9.109375 10.28125 -7.640625 C 11.6875 -6.179688 13.390625 -5.453125 15.390625 -5.453125 Z M 15.390625 -5.453125 "/></g></g></g></svg>